<?xml version="1.0" encoding="UTF-8" standalone="no"?>
<svg width="32px" height="32px" viewBox="0 0 32 32" version="1.1" xmlns="http://www.w3.org/2000/svg" xmlns:xlink="http://www.w3.org/1999/xlink">
    <!-- Generator: Sketch 3.8.3 (29802) - http://www.bohemiancoding.com/sketch -->
    <title>castle</title>
    <desc>Created with Sketch.</desc>
    <defs></defs>
    <g id="Page-1" stroke-width="1" fill="none" fill-rule="evenodd" stroke-linecap="round" stroke-linejoin="round">
        <g id="castle" stroke="#ed5f43" stroke-width="2">
            <g transform="translate(1.000000, 1.000000)">
                <path d="M20,27 L20,0 L16,0 L16,4 L12,4 L12,0 L8,0 L8,4 L4,4 L4,0 L0,0 L0,30 L5,30 L5,22 C5,22 5,17 10,17 C15,17 15,22 15,22 L15,30 L30,30 L30,0 L27,0 L27,4 L23,4 L23,0" id="Stroke-1"></path>
                <path d="M25,11 L25,13" id="Stroke-3"></path>
                <path d="M25,17 L25,19" id="Stroke-5"></path>
            </g>
        </g>
    </g>
</svg>