<?xml version="1.0" encoding="UTF-8" standalone="no"?>
<svg width="32px" height="32px" viewBox="0 0 32 32" version="1.1" xmlns="http://www.w3.org/2000/svg" xmlns:xlink="http://www.w3.org/1999/xlink">
    <!-- Generator: Sketch 3.8.3 (29802) - http://www.bohemiancoding.com/sketch -->
    <title>settings-complex</title>
    <desc>Created with Sketch.</desc>
    <defs></defs>
    <g id="Page-1" stroke="none" stroke-width="1" fill="none" fill-rule="evenodd" stroke-linecap="round" stroke-linejoin="round">
        <g id="settings-complex" stroke="#ed5f43" stroke-width="2">
            <g transform="translate(1.000000, 1.000000)">
                <path d="M30,29 C30,29.553 29.553,30 29,30 L1,30 C0.447,30 0,29.553 0,29 L0,1 C0,0.447 0.447,0 1,0 L29,0 C29.553,0 30,0.447 30,1 L30,29 L30,29 Z" id="Stroke-1"></path>
                <path d="M10,8 C10,6.896 9.104,6 8,6 C6.896,6 6,6.896 6,8 C6,9.104 6.896,10 8,10 C9.104,10 10,9.104 10,8 L10,8 Z" id="Stroke-3"></path>
                <path d="M24,8 L10,8" id="Stroke-5"></path>
                <path d="M17,15 C17,13.896 16.104,13 15,13 C13.896,13 13,13.896 13,15 C13,16.104 13.896,17 15,17 C16.104,17 17,16.104 17,15 L17,15 Z" id="Stroke-7"></path>
                <path d="M9,15 L6,15" id="Stroke-9"></path>
                <path d="M24,15 L17,15" id="Stroke-11"></path>
                <path d="M24,22 C24,20.896 23.104,20 22,20 C20.896,20 20,20.896 20,22 C20,23.104 20.896,24 22,24 C23.104,24 24,23.104 24,22 L24,22 Z" id="Stroke-13"></path>
                <path d="M16,22 L6,22" id="Stroke-15"></path>
            </g>
        </g>
    </g>
</svg>