<?xml version="1.0" encoding="UTF-8" standalone="no"?>
<svg width="32px" height="32px" viewBox="0 0 32 32" version="1.1" xmlns="http://www.w3.org/2000/svg" xmlns:xlink="http://www.w3.org/1999/xlink">
    <!-- Generator: Sketch 3.8.3 (29802) - http://www.bohemiancoding.com/sketch -->
    <title>ruler-pencil</title>
    <desc>Created with Sketch.</desc>
    <defs></defs>
    <g id="Page-1" stroke="none" stroke-width="1" fill="none" fill-rule="evenodd" stroke-linecap="round" stroke-linejoin="round">
        <g id="ruler-pencil" stroke="#ed5f43" stroke-width="2">
            <g transform="translate(1.000000, 1.000000)">
                <path d="M24,6 L30,6" id="Stroke-1"></path>
                <path d="M24,22 L30,22" id="Stroke-3"></path>
                <path d="M27,10 L30,10" id="Stroke-5"></path>
                <path d="M27,14 L30,14" id="Stroke-7"></path>
                <path d="M27,18 L30,18" id="Stroke-9"></path>
                <path d="M27,26 L30,26" id="Stroke-11"></path>
                <path d="M12,10 L12,30 L16,29.977 L16,1 C16,0.447 16.447,0 17,0 L29,0 C29.553,0 30,0.447 30,1 L30,30" id="Stroke-13"></path>
                <path d="M6,30 L6,12" id="Stroke-15"></path>
                <path d="M3,5 L9,5" id="Stroke-17"></path>
                <polyline id="Stroke-19" points="0 10 6 12 12 10 6 0 0 10 0 28"></polyline>
                <path d="M27,30 L30,30" id="Stroke-21"></path>
            </g>
        </g>
    </g>
</svg>