<?xml version="1.0" encoding="UTF-8" standalone="no"?>
<svg width="32px" height="32px" viewBox="0 0 32 32" version="1.1" xmlns="http://www.w3.org/2000/svg" xmlns:xlink="http://www.w3.org/1999/xlink">
    <!-- Generator: Sketch 3.8.3 (29802) - http://www.bohemiancoding.com/sketch -->
    <title>comments</title>
    <desc>Created with Sketch.</desc>
    <defs></defs>
    <g id="Page-1" stroke="none" stroke-width="1" fill="none" fill-rule="evenodd" stroke-linecap="round" stroke-linejoin="round">
        <g id="comments" stroke="#ed5f43" stroke-width="2">
            <g transform="translate(1.000000, 1.000000)">
                <path d="M22.875,24 C22.875,24 26.937,28 27.937,29 C29.547,30.609 30,30 30,29 L30,7 C30,6.447 29.553,6 29,6 L7,6 C6.447,6 6,6.447 6,7 L6,25 C6,25.553 6.447,26 7,26 L21,26" id="Stroke-1"></path>
                <path d="M12,14 L24,14" id="Stroke-3"></path>
                <path d="M12,18 L17,18" id="Stroke-5"></path>
                <path d="M24,3 L24,1 C24,0.437 23.604,0 23,0 L1,0 C0.447,0 0,0.447 0,1 L0,19 C0,19.553 0.447,20 1,20 L6,20" id="Stroke-7"></path>
            </g>
        </g>
    </g>
</svg>