<?xml version="1.0" encoding="UTF-8" standalone="no"?>
<svg width="32px" height="32px" viewBox="0 0 32 32" version="1.1" xmlns="http://www.w3.org/2000/svg" xmlns:xlink="http://www.w3.org/1999/xlink">
    <!-- Generator: Sketch 3.8.3 (29802) - http://www.bohemiancoding.com/sketch -->
    <title>inkpen</title>
    <desc>Created with Sketch.</desc>
    <defs></defs>
    <g id="Page-1" stroke="none" stroke-width="1" fill="none" fill-rule="evenodd" stroke-linecap="round" stroke-linejoin="round">
        <g id="inkpen" stroke="#ed5f43" stroke-width="2">
            <g transform="translate(1.000000, 1.000000)">
                <path d="M2,3 C2,2.447 1.553,2 1,2 C0.447,2 0,2.447 0,3 C0,3.553 0.447,4 1,4 C1.553,4 2,3.553 2,3 L2,3 Z" id="Stroke-1"></path>
                <path d="M19,3 L2,3" id="Stroke-3"></path>
                <path d="M18,26 C18,22.729 16.43,20.824 14.002,19 L14,19 L22,6 L30,19 C27.571,20.824 26,22.729 26,26 L18,26 L18,26 Z" id="Stroke-5"></path>
                <path d="M22,6 L22,16" id="Stroke-7"></path>
                <path d="M3,19 C3,10.164 10.164,3 19,3" id="Stroke-9"></path>
                <path d="M29,30 L15,30" id="Stroke-11"></path>
                <polygon id="Stroke-13" points="22 0 19 3 22 6 25 3"></polygon>
                <path d="M3.7148,23.707 C3.3238,24.098 2.6918,24.098 2.3008,23.707 L0.8868,22.293 C0.4958,21.902 0.4958,21.269 0.8868,20.879 L2.3008,19.465 C2.6918,19.074 3.3238,19.074 3.7148,19.465 L5.1288,20.879 C5.5198,21.269 5.5198,21.902 5.1288,22.293 L3.7148,23.707 L3.7148,23.707 Z" id="Stroke-15"></path>
            </g>
        </g>
    </g>
</svg>