<?xml version="1.0" encoding="UTF-8" standalone="no"?>
<svg width="32px" height="32px" viewBox="0 0 32 32" version="1.1" xmlns="http://www.w3.org/2000/svg" xmlns:xlink="http://www.w3.org/1999/xlink">
    <!-- Generator: Sketch 3.8.3 (29802) - http://www.bohemiancoding.com/sketch -->
    <title>video-player</title>
    <desc>Created with Sketch.</desc>
    <defs></defs>
    <g id="Page-1" stroke="none" stroke-width="1" fill="none" fill-rule="evenodd" stroke-linecap="round" stroke-linejoin="round">
        <g id="video-player" stroke="#ed5f43" stroke-width="2">
            <g transform="translate(1.000000, 1.000000)">
                <path d="M18,24 L0,24 L0,29 C0,29.553 0.447,30 1,30 L29,30 C29.553,30 30,29.553 30,29 L30,1 C30,0.447 29.553,0 29,0 L1,0 C0.447,0 0,0.447 0,1 L0,21" id="Stroke-1"></path>
                <path d="M22,24 L27,24" id="Stroke-3"></path>
                <path d="M22,24 C22,22.896 21.104,22 20,22 C18.896,22 18,22.896 18,24 C18,25.104 18.896,26 20,26 C21.104,26 22,25.104 22,24 L22,24 Z" id="Stroke-5"></path>
                <polygon id="Stroke-7" points="12 8 12 16 19 12"></polygon>
            </g>
        </g>
    </g>
</svg>